<?xml version="1.0" encoding="UTF-8"?>
<svg version="1.1" xmlns="http://www.w3.org/2000/svg" width="2048" height="2048">
<path d="M0 0 C1.86296614 -0.0070215 3.72593204 -0.01410832 5.58889771 -0.02125549 C11.51239364 -0.04066359 17.43585048 -0.04568967 23.359375 -0.046875 C24.36816963 -0.04731686 25.37696426 -0.04775871 26.41632843 -0.04821396 C56.74547781 -0.05518299 86.90361524 0.18549341 117.109375 3.203125 C118.00553528 3.29033813 118.90169556 3.37755127 119.82501221 3.46740723 C159.23752608 7.30937472 198.35183658 13.07659996 237.109375 21.203125 C238.39473145 21.47205566 239.68008789 21.74098633 241.00439453 22.01806641 C275.43270999 29.31806586 309.47492637 38.41490108 342.88598633 49.46807861 C345.17230278 50.22392876 347.46011145 50.97514036 349.74804688 51.72607422 C372.90155974 59.34596822 395.61706099 67.81206395 418.109375 77.203125 C418.74796448 77.46891357 419.38655396 77.73470215 420.04449463 78.00854492 C491.25180271 107.67307615 558.21539269 145.59986769 621.109375 190.203125 C621.88313477 190.7511377 622.65689453 191.29915039 623.45410156 191.86376953 C639.91720002 203.55235864 655.75741578 215.98226691 671.36962891 228.77929688 C672.92885827 230.05538804 674.493386 231.32499881 676.05859375 232.59375 C686.52971322 241.09293602 696.74212934 249.87165181 706.6796875 258.98828125 C708.71452915 260.84319317 710.77258747 262.65741298 712.859375 264.453125 C722.49087027 272.84375278 731.70254006 281.69926236 740.6730957 290.78833008 C744.05454069 294.19931194 747.55453083 297.38288846 751.22241211 300.48608398 C753.09691145 302.1917838 754.70065861 303.96810852 756.3359375 305.90234375 C760.06296815 310.21465552 764.04212749 314.21379411 768.109375 318.203125 C772.7543063 322.75907294 777.21922704 327.37895779 781.46582031 332.31005859 C783.89976824 335.1135096 786.44468283 337.80835846 788.984375 340.515625 C793.52286024 345.38898049 797.80286297 350.40616477 801.97265625 355.6015625 C804.06819994 358.15299229 806.24900655 360.58639273 808.484375 363.015625 C812.46199185 367.38549819 816.11814094 371.93922036 819.73730469 376.60424805 C823.33403439 381.23705993 827.01834988 385.79064 830.734375 390.328125 C836.03635739 396.82683174 841.17007025 403.42303711 846.109375 410.203125 C846.58842285 410.86006348 847.0674707 411.51700195 847.56103516 412.19384766 C859.05564431 427.98416873 870.40568791 443.86372123 881.109375 460.203125 C881.53541016 460.8518457 881.96144531 461.50056641 882.40039062 462.16894531 C900.68270617 490.05286214 917.46474747 518.76033885 933.109375 548.203125 C933.64272461 549.20134277 934.17607422 550.19956055 934.72558594 551.22802734 C943.46340269 567.61471371 951.46525219 584.28050123 959.109375 601.203125 C959.58616699 602.25467773 960.06295898 603.30623047 960.55419922 604.38964844 C985.11332735 658.73434849 1004.62236309 715.37039083 1019.109375 773.203125 C1019.2952417 773.94119385 1019.4811084 774.6792627 1019.67260742 775.43969727 C1033.38167229 829.95231291 1042.22237994 885.56913768 1046.796875 941.578125 C1046.88828262 942.69252457 1046.88828262 942.69252457 1046.98153687 943.82943726 C1048.47605402 962.28632558 1049.26918423 980.70968686 1049.3125 999.2265625 C1049.31948023 1001.09113588 1049.32652118 1002.95570904 1049.33361816 1004.82028198 C1049.35287623 1010.73956604 1049.35779318 1016.65881301 1049.359375 1022.578125 C1049.35996414 1023.58550217 1049.36055328 1024.59287933 1049.36116028 1025.63078308 C1049.37320253 1054.79175109 1049.19301366 1083.80771968 1046.33721924 1112.85516357 C1046.10441009 1115.25428899 1045.88604669 1117.65436234 1045.67138672 1120.05517578 C1041.08410278 1171.04493268 1032.34597658 1221.50822984 1020.109375 1271.203125 C1019.91408203 1271.99632141 1019.71878906 1272.78951782 1019.51757812 1273.60675049 C1013.55944643 1297.70658205 1006.60579727 1321.42389763 998.83532715 1344.99987793 C998.13660489 1347.12048294 997.4416031 1349.2422777 996.74707031 1351.36425781 C982.67406805 1394.22484942 965.06842394 1435.77207627 945.109375 1476.203125 C944.38664457 1477.67704696 943.66397627 1479.15099939 942.94140625 1480.625 C941.40752435 1483.737537 939.84745055 1486.83582721 938.27050781 1489.92675781 C937.39217662 1491.64870063 936.51709277 1493.37230038 935.64355469 1495.09667969 C927.79854293 1510.55720733 919.54538936 1525.68166071 910.66992188 1540.57421875 C909.26440783 1542.94195579 907.87695125 1545.31870083 906.5 1547.703125 C881.52718493 1590.87877318 852.19371985 1631.9271151 820.54931641 1670.44726562 C819.26571799 1672.01248092 817.98974428 1673.583942 816.71484375 1675.15625 C808.2186202 1685.62727146 799.43950678 1695.83734154 790.32421875 1705.7734375 C788.46930683 1707.80827915 786.65508702 1709.86633747 784.859375 1711.953125 C776.46874722 1721.58462027 767.61323764 1730.79629006 758.52416992 1739.7668457 C755.11318806 1743.14829069 751.92961154 1746.64828083 748.82641602 1750.31616211 C747.1207162 1752.19066145 745.34439148 1753.79440861 743.41015625 1755.4296875 C739.09784448 1759.15671815 735.09870589 1763.13587749 731.109375 1767.203125 C726.55342706 1771.8480563 721.93354221 1776.31297704 717.00244141 1780.55957031 C714.1989904 1782.99351824 711.50414154 1785.53843283 708.796875 1788.078125 C703.92351951 1792.61661024 698.90633523 1796.89661297 693.7109375 1801.06640625 C691.15950771 1803.16194994 688.72610727 1805.34275655 686.296875 1807.578125 C681.92236674 1811.55996087 677.36408425 1815.22054583 672.69287109 1818.84204102 C668.87622932 1821.80357984 665.11725783 1824.82272329 661.38964844 1827.89550781 C652.65004165 1835.09104511 643.63166013 1841.84906829 634.46777344 1848.49316406 C632.21199471 1850.1287204 629.96104915 1851.77072253 627.7109375 1853.4140625 C611.19157234 1865.44721355 594.5575427 1877.32693761 577.10351562 1887.97265625 C574.97132245 1889.28830924 572.85937183 1890.632451 570.75 1891.984375 C553.11415021 1903.28078576 535.00100583 1913.7974084 516.61962891 1923.83251953 C514.80538981 1924.82309902 512.99276489 1925.81663681 511.18115234 1926.81201172 C497.04318706 1934.57158548 482.80536522 1941.95532224 468.18408203 1948.76074219 C464.93803795 1950.28350131 461.70898322 1951.83888113 458.48046875 1953.3984375 C400.32249029 1981.29028283 338.62682139 2002.54259981 276.109375 2018.203125 C275.37130615 2018.3889917 274.6332373 2018.5748584 273.87280273 2018.76635742 C222.89096663 2031.58748681 170.85022877 2040.39918551 118.480896 2044.99023438 C116.13656116 2045.20068451 113.794168 2045.42642506 111.45166016 2045.65625 C54.18169321 2051.19090931 -6.08729434 2051.22115165 -63.33905029 2045.45959473 C-66.04062359 2045.188048 -68.74311052 2044.92717293 -71.44580078 2044.66699219 C-160.30628974 2036.01099102 -247.53699533 2016.49949328 -416.890625 1949.203125 C-418.75641336 1948.33182339 -420.62229643 1947.46072454 -422.48828125 1946.58984375 C-448.52947338 1934.37994181 -474.25601711 1920.68886129 -498.72021484 1905.54248047 C-501.48514319 1903.8362491 -504.26054295 1902.14746617 -507.03515625 1900.45703125 C-518.11237435 1893.69405605 -529.16264629 1886.91307198 -539.87451172 1879.58007812 C-542.26049212 1877.95051534 -544.65567639 1876.33487076 -547.05078125 1874.71875 C-566.13494295 1861.81353826 -584.65125078 1848.27522498 -602.890625 1834.203125 C-603.55578125 1833.69007812 -604.2209375 1833.17703125 -604.90625 1832.6484375 C-622.64219981 1818.92960453 -639.93678517 1804.57708241 -656.4609375 1789.41796875 C-658.49577915 1787.56305683 -660.55383747 1785.74883702 -662.640625 1783.953125 C-672.27212027 1775.56249722 -681.48379006 1766.70698764 -690.4543457 1757.61791992 C-693.83579069 1754.20693806 -697.33578083 1751.02336154 -701.00366211 1747.92016602 C-702.87816145 1746.2144662 -704.48190861 1744.43814148 -706.1171875 1742.50390625 C-709.84421815 1738.19159448 -713.82337749 1734.19245589 -717.890625 1730.203125 C-722.5355563 1725.64717706 -727.00047704 1721.02729221 -731.24707031 1716.09619141 C-733.68101824 1713.2927404 -736.22593283 1710.59789154 -738.765625 1707.890625 C-743.30411024 1703.01726951 -747.58411297 1698.00008523 -751.75390625 1692.8046875 C-753.84944994 1690.25325771 -756.03025655 1687.81985727 -758.265625 1685.390625 C-762.24324185 1681.02075181 -765.89939094 1676.46702964 -769.51855469 1671.80200195 C-773.11528439 1667.16919007 -776.79959988 1662.61561 -780.515625 1658.078125 C-785.81760739 1651.57941826 -790.95132025 1644.98321289 -795.890625 1638.203125 C-796.36967285 1637.54618652 -796.8487207 1636.88924805 -797.34228516 1636.21240234 C-808.83689431 1620.42208127 -820.18693791 1604.54252877 -830.890625 1588.203125 C-831.52967773 1587.23004395 -831.52967773 1587.23004395 -832.18164062 1586.23730469 C-850.2324661 1558.70645309 -866.83302715 1530.39147182 -882.24707031 1501.30224609 C-883.81572024 1498.34436698 -885.3955671 1495.3926992 -886.9765625 1492.44140625 C-894.86253009 1477.62725488 -901.9773884 1462.49234851 -908.890625 1447.203125 C-909.60798828 1445.62144531 -909.60798828 1445.62144531 -910.33984375 1444.0078125 C-934.89690076 1389.66586561 -954.40443765 1333.0325675 -968.890625 1275.203125 C-969.0764917 1274.46505615 -969.2623584 1273.7269873 -969.45385742 1272.96655273 C-980.5709885 1228.76048186 -988.50565375 1183.86843324 -993.578125 1138.578125 C-993.72343155 1137.31411362 -993.72343155 1137.31411362 -993.87167358 1136.02456665 C-997.87569006 1100.78189064 -999.40859782 1065.42413928 -999.28173828 1029.97363281 C-999.26464819 1025.16500959 -999.27485164 1020.35688516 -999.29206085 1015.54827881 C-999.39852722 980.33520233 -997.6410977 945.2003769 -993.640625 910.203125 C-993.53835602 909.28561462 -993.43608704 908.36810425 -993.33071899 907.42279053 C-985.93345701 841.41033602 -972.42373539 775.57240609 -951.62963867 712.44696045 C-950.848982 710.07668615 -950.07392909 707.70461592 -949.29882812 705.33251953 C-941.07725668 680.2552961 -931.96113245 655.59600697 -921.890625 631.203125 C-921.61881409 630.54411194 -921.34700317 629.88509888 -921.06695557 629.20611572 C-892.0151779 558.95322965 -854.66833149 492.09691279 -810.39697266 430.30664062 C-808.8418046 428.13495052 -807.29399683 425.95812262 -805.74609375 423.78125 C-794.51265771 408.04283582 -782.56990765 392.8943691 -770.31445312 377.94287109 C-769.03836196 376.38364173 -767.76875119 374.819114 -766.5 373.25390625 C-758.00081398 362.78278678 -749.22209819 352.57037066 -740.10546875 342.6328125 C-738.25055683 340.59797085 -736.43633702 338.53991253 -734.640625 336.453125 C-726.24999722 326.82162973 -717.39448764 317.60995994 -708.30541992 308.6394043 C-704.89443806 305.25795931 -701.71086154 301.75796917 -698.60766602 298.09008789 C-696.9019662 296.21558855 -695.12564148 294.61184139 -693.19140625 292.9765625 C-688.87909448 289.24953185 -684.87995589 285.27037251 -680.890625 281.203125 C-676.33467706 276.5581937 -671.71479221 272.09327296 -666.78369141 267.84667969 C-663.9802404 265.41273176 -661.28539154 262.86781717 -658.578125 260.328125 C-653.70476951 255.78963976 -648.68758523 251.50963703 -643.4921875 247.33984375 C-640.94075771 245.24430006 -638.50735727 243.06349345 -636.078125 240.828125 C-631.70825181 236.85050815 -627.15452964 233.19435906 -622.48950195 229.57519531 C-617.85669007 225.97846561 -613.30311 222.29415012 -608.765625 218.578125 C-602.26691826 213.27614261 -595.67071289 208.14242975 -588.890625 203.203125 C-587.90521729 202.48455322 -587.90521729 202.48455322 -586.89990234 201.75146484 C-571.10958127 190.25685569 -555.23002877 178.90681209 -538.890625 168.203125 C-538.2419043 167.77708984 -537.59318359 167.35105469 -536.92480469 166.91210938 C-509.04088786 148.62979383 -480.33341115 131.84775253 -450.890625 116.203125 C-449.89240723 115.66977539 -448.89418945 115.13642578 -447.86572266 114.58691406 C-431.48183795 105.85059123 -414.8366818 97.78791668 -397.890625 90.203125 C-396.85424896 89.73876038 -396.85424896 89.73876038 -395.79693604 89.26501465 C-317.77646074 54.36512507 -235.85698962 29.01262032 0 0 Z " fill="#009B39" transform="translate(998.890625,-0.203125)"/>
<path d="M0 0 C1.80151367 0.96118164 1.80151367 0.96118164 3.66796875 2.16015625 C4.38315674 2.61567871 5.09834473 3.07120117 5.83520508 3.54052734 C6.6114624 4.04277832 7.38771973 4.5450293 8.1875 5.0625 C9.01338623 5.59053223 9.83927246 6.11856445 10.69018555 6.66259766 C12.49910018 7.8200226 14.30640123 8.97997223 16.11230469 10.14208984 C19.08455846 12.05440395 22.06121788 13.95968623 25.0390625 15.86328125 C29.27361313 18.5706169 33.50652789 21.28048175 37.73828125 23.9921875 C43.48498456 27.67282884 49.2406686 31.33915953 55 35 C68.08148769 43.31683287 81.13315903 51.6801417 94.18652344 60.04101562 C106.01126165 67.61436653 117.8418762 75.17806767 129.69213867 82.71142578 C137.69991482 87.80407464 145.69224976 92.92068022 153.68359375 98.0390625 C160.44858596 102.37066444 167.22090689 106.69050394 174 111 C182.9061195 116.66165507 191.79678984 122.34714637 200.68359375 128.0390625 C207.44858611 132.37066453 214.22093267 136.69046323 221 141 C234.08143824 149.31691115 247.13315866 157.68014147 260.18652344 166.04101562 C272.01126165 173.61436653 283.8418762 181.17806767 295.69213867 188.71142578 C303.69991482 193.80407464 311.69224976 198.92068022 319.68359375 204.0390625 C326.44858596 208.37066444 333.22090689 212.69050394 340 217 C348.9061195 222.66165507 357.79678984 228.34714637 366.68359375 234.0390625 C373.44858611 238.37066453 380.22093267 242.69046323 387 247 C400.08143824 255.31691115 413.13315866 263.68014147 426.18652344 272.04101562 C438.01126165 279.61436653 449.8418762 287.17806767 461.69213867 294.71142578 C469.69991482 299.80407464 477.69224976 304.92068022 485.68359375 310.0390625 C492.44858596 314.37066444 499.22090689 318.69050394 506 323 C514.9061195 328.66165507 523.79678984 334.34714637 532.68359375 340.0390625 C539.44858611 344.37066453 546.22093267 348.69046323 553 353 C566.08143824 361.31691115 579.13315866 369.68014147 592.18652344 378.04101562 C604.01126165 385.61436653 615.8418762 393.17806767 627.69213867 400.71142578 C635.69991482 405.80407464 643.69224976 410.92068022 651.68359375 416.0390625 C658.44858596 420.37066444 665.22090689 424.69050394 672 429 C680.9061195 434.66165507 689.79678984 440.34714637 698.68359375 446.0390625 C705.44858611 450.37066453 712.22093267 454.69046323 719 459 C732.08143824 467.31691115 745.13315866 475.68014147 758.18652344 484.04101562 C770.01126165 491.61436653 781.8418762 499.17806767 793.69213867 506.71142578 C801.69991482 511.80407464 809.69224976 516.92068022 817.68359375 522.0390625 C824.44858596 526.37066444 831.22090689 530.69050394 838 535 C846.9061195 540.66165507 855.79678984 546.34714637 864.68359375 552.0390625 C871.44858611 556.37066453 878.22093267 560.69046323 885 565 C899.17955349 574.01507038 913.3261933 583.08155958 927.47265625 592.1484375 C928.53516602 592.8290625 929.59767578 593.5096875 930.69238281 594.2109375 C932.79251974 595.55646861 934.89214041 596.90280588 936.99121094 598.25 C941.9055455 601.3996916 946.83127285 604.52692391 951.79296875 607.6015625 C952.68580566 608.15682617 953.57864258 608.71208984 954.49853516 609.28417969 C956.16753248 610.3197145 957.84021838 611.3493355 959.51708984 612.37207031 C961.37864589 613.52848525 963.19530277 614.75671633 965 616 C965 616.66 965 617.32 965 618 C963.60498047 619.10644531 963.60498047 619.10644531 961.6171875 620.328125 C960.87388184 620.79057617 960.13057617 621.25302734 959.36474609 621.72949219 C958.54312988 622.23125977 957.72151367 622.73302734 956.875 623.25 C955.11424409 624.3432038 953.3538408 625.43697568 951.59375 626.53125 C950.67078125 627.10230469 949.7478125 627.67335938 948.796875 628.26171875 C944.30062604 631.05617516 939.8381455 633.90307931 935.375 636.75 C934.46322998 637.33056152 933.55145996 637.91112305 932.61206055 638.50927734 C921.39531764 645.65294473 910.19823139 652.82736635 899 660 C886.11334724 668.25409264 873.22261592 676.50135689 860.30786133 684.71142578 C853.36346608 689.1278038 846.43014773 693.56130415 839.5 698 C830.77919067 703.58559813 822.04834949 709.15504052 813.30859375 714.7109375 C806.36397703 719.12751389 799.43039479 723.56114591 792.5 728 C784.67439704 733.01222668 776.84257859 738.014376 769 743 C756.98301647 750.64015259 744.99119644 758.31946045 733 766 C720.11334724 774.25409264 707.22261592 782.50135689 694.30786133 790.71142578 C687.36346608 795.1278038 680.43014773 799.56130415 673.5 804 C664.77919067 809.58559813 656.04834949 815.15504052 647.30859375 820.7109375 C640.36397703 825.12751389 633.43039479 829.56114591 626.5 834 C618.67439704 839.01222668 610.84257859 844.014376 603 849 C590.98301647 856.64015259 578.99119644 864.31946045 567 872 C554.11334724 880.25409264 541.22261592 888.50135689 528.30786133 896.71142578 C521.36346608 901.1278038 514.43014773 905.56130415 507.5 910 C498.77919067 915.58559813 490.04834949 921.15504052 481.30859375 926.7109375 C474.36397703 931.12751389 467.43039479 935.56114591 460.5 940 C452.67439704 945.01222668 444.84257859 950.014376 437 955 C424.98301647 962.64015259 412.99119644 970.31946045 401 978 C388.11334724 986.25409264 375.22261592 994.50135689 362.30786133 1002.71142578 C355.36346608 1007.1278038 348.43014773 1011.56130415 341.5 1016 C332.77919067 1021.58559813 324.04834949 1027.15504052 315.30859375 1032.7109375 C308.36397703 1037.12751389 301.43039479 1041.56114591 294.5 1046 C286.67439704 1051.01222668 278.84257859 1056.014376 271 1061 C258.98301647 1068.64015259 246.99119644 1076.31946045 235 1084 C222.11334724 1092.25409264 209.22261592 1100.50135689 196.30786133 1108.71142578 C189.36346608 1113.1278038 182.43014773 1117.56130415 175.5 1122 C166.77919067 1127.58559813 158.04834949 1133.15504052 149.30859375 1138.7109375 C142.36397703 1143.12751389 135.43039479 1147.56114591 128.5 1152 C120.67439704 1157.01222668 112.84257859 1162.014376 105 1167 C92.98301647 1174.64015259 80.99119644 1182.31946045 69 1190 C64.77106519 1192.7086956 60.54191805 1195.41705901 56.3125 1198.125 C55.27520752 1198.78927002 54.23791504 1199.45354004 53.16918945 1200.13793945 C48.23388436 1203.2968291 43.29537544 1206.45042802 38.34765625 1209.58984375 C37.43838379 1210.16710205 36.52911133 1210.74436035 35.59228516 1211.33911133 C33.79749847 1212.47742213 32.0016192 1213.61401227 30.20458984 1214.7487793 C25.31845434 1217.84505466 20.48515239 1221.00441542 15.69140625 1224.2421875 C14.64678223 1224.94206787 13.6021582 1225.64194824 12.52587891 1226.36303711 C10.50794712 1227.71848109 8.4980722 1229.08601879 6.49755859 1230.46704102 C5.5895752 1231.07475342 4.6815918 1231.68246582 3.74609375 1232.30859375 C2.94872803 1232.85314209 2.1513623 1233.39769043 1.32983398 1233.95874023 C-1.63690501 1235.28464842 -2.9468451 1235.02262804 -6 1234 C-8.19042969 1232.85522461 -8.19042969 1232.85522461 -10.421875 1231.40234375 C-11.69321289 1230.5834668 -11.69321289 1230.5834668 -12.99023438 1229.74804688 C-13.90095703 1229.15056641 -14.81167969 1228.55308594 -15.75 1227.9375 C-17.73435313 1226.65491408 -19.718729 1225.37236335 -21.703125 1224.08984375 C-23.25290039 1223.08219971 -23.25290039 1223.08219971 -24.83398438 1222.05419922 C-30.03935526 1218.67680944 -35.2712149 1215.34097412 -40.5 1212 C-42.614652 1210.64594057 -44.72923564 1209.29177436 -46.84375 1207.9375 C-52.55611047 1204.2815893 -58.27650541 1200.63844794 -64 1197 C-72.9061195 1191.33834493 -81.79678984 1185.65285363 -90.68359375 1179.9609375 C-97.44858611 1175.62933547 -104.22093267 1171.30953677 -111 1167 C-124.08143824 1158.68308885 -137.13315866 1150.31985853 -150.18652344 1141.95898438 C-162.01126165 1134.38563347 -173.8418762 1126.82193233 -185.69213867 1119.28857422 C-193.69991482 1114.19592536 -201.69224976 1109.07931978 -209.68359375 1103.9609375 C-216.44858596 1099.62933556 -223.22090689 1095.30949606 -230 1091 C-238.9061195 1085.33834493 -247.79678984 1079.65285363 -256.68359375 1073.9609375 C-263.44858611 1069.62933547 -270.22093267 1065.30953677 -277 1061 C-290.08143824 1052.68308885 -303.13315866 1044.31985853 -316.18652344 1035.95898438 C-328.01126165 1028.38563347 -339.8418762 1020.82193233 -351.69213867 1013.28857422 C-359.69991482 1008.19592536 -367.69224976 1003.07931978 -375.68359375 997.9609375 C-382.44858596 993.62933556 -389.22090689 989.30949606 -396 985 C-404.9061195 979.33834493 -413.79678984 973.65285363 -422.68359375 967.9609375 C-429.44858611 963.62933547 -436.22093267 959.30953677 -443 955 C-456.08143824 946.68308885 -469.13315866 938.31985853 -482.18652344 929.95898438 C-494.01126165 922.38563347 -505.8418762 914.82193233 -517.69213867 907.28857422 C-525.69991482 902.19592536 -533.69224976 897.07931978 -541.68359375 891.9609375 C-548.44858596 887.62933556 -555.22090689 883.30949606 -562 879 C-570.9061195 873.33834493 -579.79678984 867.65285363 -588.68359375 861.9609375 C-595.44858611 857.62933547 -602.22093267 853.30953677 -609 849 C-622.08143824 840.68308885 -635.13315866 832.31985853 -648.18652344 823.95898438 C-660.01126165 816.38563347 -671.8418762 808.82193233 -683.69213867 801.28857422 C-691.69991482 796.19592536 -699.69224976 791.07931978 -707.68359375 785.9609375 C-714.44858596 781.62933556 -721.22090689 777.30949606 -728 773 C-736.9061195 767.33834493 -745.79678984 761.65285363 -754.68359375 755.9609375 C-761.44858611 751.62933547 -768.22093267 747.30953677 -775 743 C-788.08143824 734.68308885 -801.13315866 726.31985853 -814.18652344 717.95898438 C-826.01126165 710.38563347 -837.8418762 702.82193233 -849.69213867 695.28857422 C-857.69991482 690.19592536 -865.69224976 685.07931978 -873.68359375 679.9609375 C-880.44858596 675.62933556 -887.22090689 671.30949606 -894 667 C-901.84260866 662.01442294 -909.67435427 657.01215978 -917.5 652 C-925.45244892 646.90739526 -933.40914763 641.8216162 -941.375 636.75 C-942.26268066 636.1837793 -943.15036133 635.61755859 -944.06494141 635.03417969 C-948.55788436 632.17225356 -953.06367055 629.33407848 -957.59375 626.53125 C-958.48271973 625.97856445 -959.37168945 625.42587891 -960.28759766 624.85644531 C-961.97621142 623.80803254 -963.66845206 622.7654325 -965.36474609 621.72949219 C-966.10805176 621.26704102 -966.85135742 620.80458984 -967.6171875 620.328125 C-968.27315918 619.9249707 -968.92913086 619.52181641 -969.60498047 619.10644531 C-970.29551514 618.55875488 -970.29551514 618.55875488 -971 618 C-971 617.34 -971 616.68 -971 616 C-969.06665039 614.57055664 -969.06665039 614.57055664 -966.34765625 612.91015625 C-965.35233887 612.29648193 -964.35702148 611.68280762 -963.33154297 611.05053711 C-961.7133667 610.06645874 -961.7133667 610.06645874 -960.0625 609.0625 C-957.83658647 607.69116371 -955.61132842 606.31876293 -953.38671875 604.9453125 C-951.74195557 603.93259277 -951.74195557 603.93259277 -950.06396484 602.89941406 C-946.13371313 600.46297117 -942.24709816 597.96500669 -938.375 595.4375 C-932.10772003 591.35690382 -925.81264704 587.32257858 -919.5 583.3125 C-911.49012178 578.22366501 -903.49080985 573.11872744 -895.5 568 C-886.77922841 562.41434312 -878.0483493 556.84495935 -869.30859375 551.2890625 C-862.36397703 546.87248611 -855.43039479 542.43885409 -848.5 538 C-840.67439704 532.98777332 -832.84257859 527.985624 -825 523 C-812.98301647 515.35984741 -800.99119644 507.68053955 -789 500 C-776.11334724 491.74590736 -763.22261592 483.49864311 -750.30786133 475.28857422 C-743.36346608 470.8721962 -736.43014773 466.43869585 -729.5 462 C-720.77919067 456.41440187 -712.04834949 450.84495948 -703.30859375 445.2890625 C-696.36397703 440.87248611 -689.43039479 436.43885409 -682.5 432 C-674.67439704 426.98777332 -666.84257859 421.985624 -659 417 C-646.98301647 409.35984741 -634.99119644 401.68053955 -623 394 C-610.11334724 385.74590736 -597.22261592 377.49864311 -584.30786133 369.28857422 C-577.36346608 364.8721962 -570.43014773 360.43869585 -563.5 356 C-554.77919067 350.41440187 -546.04834949 344.84495948 -537.30859375 339.2890625 C-530.36397703 334.87248611 -523.43039479 330.43885409 -516.5 326 C-508.67439704 320.98777332 -500.84257859 315.985624 -493 311 C-480.98301647 303.35984741 -468.99119644 295.68053955 -457 288 C-444.11334724 279.74590736 -431.22261592 271.49864311 -418.30786133 263.28857422 C-411.36346608 258.8721962 -404.43014773 254.43869585 -397.5 250 C-388.77919067 244.41440187 -380.04834949 238.84495948 -371.30859375 233.2890625 C-364.36397703 228.87248611 -357.43039479 224.43885409 -350.5 220 C-342.67439704 214.98777332 -334.84257859 209.985624 -327 205 C-314.98301647 197.35984741 -302.99119644 189.68053955 -291 182 C-278.11334724 173.74590736 -265.22261592 165.49864311 -252.30786133 157.28857422 C-245.36346608 152.8721962 -238.43014773 148.43869585 -231.5 144 C-222.77919067 138.41440187 -214.04834949 132.84495948 -205.30859375 127.2890625 C-198.36397703 122.87248611 -191.43039479 118.43885409 -184.5 114 C-176.67439704 108.98777332 -168.84257859 103.985624 -161 99 C-148.98301647 91.35984741 -136.99119644 83.68053955 -125 76 C-112.11334724 67.74590736 -99.22261592 59.49864311 -86.30786133 51.28857422 C-79.36346608 46.8721962 -72.43014773 42.43869585 -65.5 38 C-56.79390418 32.42382575 -48.078489 26.86267684 -39.35253906 21.31762695 C-34.27572997 18.08983057 -29.20504054 14.85267452 -24.140625 11.60546875 C-23.27733582 11.05211349 -23.27733582 11.05211349 -22.39660645 10.48757935 C-19.57866729 8.68117373 -16.76146339 6.87364699 -13.9453125 5.06445312 C-12.43324219 4.09475586 -12.43324219 4.09475586 -10.890625 3.10546875 C-9.54532715 2.24151489 -9.54532715 2.24151489 -8.17285156 1.36010742 C-4.84259544 -0.72448323 -3.74830058 -1.24247532 0 0 Z " fill="#FDDE00" transform="translate(1027,407)"/>
<path d="M0 0 C2.733605 0.3123204 5.46902568 0.60763786 8.20422363 0.90563965 C58.35285871 6.58409234 108.76608357 16.19654392 156.97766113 31.22595215 C158.37741735 31.65725349 159.77732997 32.08804745 161.17736816 32.51843262 C202.06810843 45.10356005 242.00166957 59.51543933 280.97766113 77.22595215 C282.70871094 78.01026611 282.70871094 78.01026611 284.47473145 78.8104248 C311.42904442 91.07127063 337.75803172 104.33788464 363.1763916 119.55554199 C365.9663917 121.21923213 368.76836166 122.86058752 371.57531738 124.4954834 C392.69112866 136.81396953 413.04587274 150.07401934 432.97766113 164.22595215 C434.20791016 165.09848633 434.20791016 165.09848633 435.4630127 165.98864746 C446.48715839 173.82793885 457.28912107 181.93602147 467.97766113 190.22595215 C468.60156738 190.70806152 469.22547363 191.1901709 469.86828613 191.68688965 C477.36378771 197.48469215 484.68428848 203.44849488 491.88781738 209.6048584 C494.75343807 212.04898549 497.67171636 214.42290949 500.60266113 216.78845215 C505.50051428 220.76571028 510.1441503 224.96323333 514.76281738 229.25720215 C516.81445234 231.25267003 516.81445234 231.25267003 518.97766113 232.22595215 C509.24099787 270.75663251 489.65748874 308.78969166 466.97766113 341.22595215 C466.57337891 341.80893066 466.16909668 342.39190918 465.75256348 342.99255371 C450.35078965 365.15206184 432.74986131 385.48589604 413.72766113 404.60095215 C413.0782959 405.25499023 412.42893066 405.90902832 411.7598877 406.58288574 C407.32921751 410.99892954 402.72263753 415.15154269 397.97766113 419.22595215 C397.01344238 420.07157715 396.04922363 420.91720215 395.05578613 421.78845215 C368.24996653 444.89181048 338.52441872 463.34940231 306.97766113 479.22595215 C306.25079102 479.59671875 305.5239209 479.96748535 304.77502441 480.3494873 C290.68448494 487.49904276 275.80056321 492.82026204 260.97766113 498.22595215 C260.11495605 498.54338379 259.25225098 498.86081543 258.36340332 499.18786621 C215.74950355 514.72552144 170.83068971 519.50128428 125.79016113 519.47595215 C124.0263913 519.47506088 124.0263913 519.47506088 122.22698975 519.47415161 C104.66604166 519.44024424 87.67539593 518.71601846 70.29016113 516.03845215 C69.5793338 515.92990906 68.86850647 515.82136597 68.13613892 515.70953369 C-15.1352957 502.89319641 -91.17674456 465.04296551 -164.39733887 395.97595215 C-165.378396 395.0019043 -165.378396 395.0019043 -166.37927246 394.00817871 C-170.79531626 389.57750853 -174.9479294 384.97092854 -179.02233887 380.22595215 C-179.86796387 379.2617334 -180.71358887 378.29751465 -181.58483887 377.30407715 C-204.6881972 350.49825754 -223.14578903 320.77270973 -239.02233887 289.22595215 C-239.57848877 288.13564697 -239.57848877 288.13564697 -240.14587402 287.02331543 C-255.58263308 256.60012839 -266.46958704 222.23734131 -272.56384277 188.70983887 C-272.96987173 186.51019103 -273.41322249 184.32396122 -273.87780762 182.1361084 C-278.76754899 157.68740152 -279.30016016 132.8816128 -279.27233887 108.03845215 C-279.27156342 106.8636026 -279.27078796 105.68875305 -279.26998901 104.478302 C-279.23655586 87.00314343 -278.54844251 70.13626442 -275.77233887 52.85095215 C-275.66417847 52.16561401 -275.55601807 51.48027588 -275.44458008 50.77416992 C-273.18627846 36.49584914 -270.58435328 22.24291713 -267.02233887 8.22595215 C-179.88574917 -9.15206645 -88.044608 -10.14445629 0 0 Z " fill="#002776" transform="translate(895.0223388671875,912.7740478515625)"/>
<path d="M0 0 C1.22335052 -0.00570007 2.44670105 -0.01140015 3.7071228 -0.01727295 C6.2835811 -0.02665149 8.860051 -0.03322817 11.43652344 -0.03710938 C15.27822233 -0.04673046 19.11936545 -0.07778962 22.9609375 -0.109375 C47.08637705 -0.21502227 70.63441167 2.10171084 94.2734375 6.890625 C95.14003998 7.06297668 96.00664246 7.23532837 96.89950562 7.41290283 C112.142161 10.45785488 126.96807226 14.23576168 141.7109375 19.203125 C143.42361816 19.77135986 143.42361816 19.77135986 145.17089844 20.35107422 C161.86988292 25.93647037 177.87152188 32.52688524 193.7109375 40.203125 C194.58685547 40.62062012 195.46277344 41.03811523 196.36523438 41.46826172 C226.80257297 55.9899367 255.36781146 74.95506464 280.7109375 97.203125 C281.443125 97.83605469 282.1753125 98.46898437 282.9296875 99.12109375 C284.8685352 100.8021978 286.79016606 102.50142322 288.7109375 104.203125 C289.39542969 104.79480469 290.07992187 105.38648438 290.78515625 105.99609375 C296.71195775 111.1983966 302.31398097 116.69987022 307.8984375 122.265625 C308.65882324 123.02141846 309.41920898 123.77721191 310.20263672 124.5559082 C314.91053653 129.27664307 319.3778453 134.13777487 323.7109375 139.203125 C324.5565625 140.16734375 325.4021875 141.1315625 326.2734375 142.125 C349.37589514 168.92977458 367.83785369 198.65608209 383.7109375 230.203125 C384.1140918 230.99477051 384.51724609 231.78641602 384.93261719 232.60205078 C395.4713919 253.40557409 403.69735773 275.68142452 409.7109375 298.203125 C410.08726318 299.60739746 410.08726318 299.60739746 410.47119141 301.04003906 C415.16127094 318.74009214 418.86426236 336.50538523 421.3984375 354.640625 C421.51791748 355.49156738 421.63739746 356.34250977 421.76049805 357.21923828 C423.30467483 368.86374011 423.86906015 380.5345416 423.9140625 392.2734375 C423.91976257 393.47459198 423.92546265 394.67574646 423.93133545 395.91329956 C423.94071224 398.44267925 423.94728996 400.97207075 423.95117188 403.50146484 C423.96079105 407.27073989 423.9918511 411.03944801 424.0234375 414.80859375 C424.09516169 431.82974529 422.89596618 448.32799177 420.7109375 465.203125 C416.91372668 463.41402527 413.97805278 461.01117646 410.8359375 458.265625 C403.95649738 452.35857474 396.88641852 446.74466915 389.7109375 441.203125 C388.93186035 440.59807129 388.1527832 439.99301758 387.35009766 439.36962891 C376.52933459 430.9753273 365.580698 422.89004984 354.203125 415.265625 C350.85450801 413.01262638 347.58864667 410.66663684 344.3359375 408.27734375 C338.94998817 404.33861705 333.43608696 400.64143481 327.8359375 397.015625 C326.34501587 396.04798218 326.34501587 396.04798218 324.82397461 395.06079102 C307.08971381 383.59196986 289.05566073 372.66756421 270.7109375 362.203125 C269.6290918 361.58598633 268.54724609 360.96884766 267.43261719 360.33300781 C197.82427552 320.83761978 122.94322721 290.19488307 45.7109375 269.203125 C44.96199219 268.9978418 44.21304687 268.79255859 43.44140625 268.58105469 C40.45380446 267.76344177 37.46226448 266.96449175 34.46484375 266.18359375 C31.5918258 265.43320092 28.72713782 264.66286699 25.86328125 263.87890625 C-4.46178546 255.65744372 -35.30461981 250.24060783 -66.2890625 245.203125 C-67.09375977 245.07123779 -67.89845703 244.93935059 -68.72753906 244.8034668 C-79.63991548 243.0185793 -90.55091639 241.44050932 -101.5390625 240.203125 C-102.26674835 240.12041351 -102.9944342 240.03770203 -103.74417114 239.95248413 C-115.88691763 238.58293527 -128.04471091 237.47219019 -140.2265625 236.515625 C-140.97949585 236.4549585 -141.7324292 236.39429199 -142.50817871 236.33178711 C-165.721947 234.48343165 -188.99193722 234.0314532 -212.27124023 234.07275391 C-215.85469782 234.0781297 -219.43803044 234.07275253 -223.02148438 234.06640625 C-239.13103741 234.06139358 -255.19624209 234.48496017 -271.2890625 235.203125 C-272.11352875 235.23857422 -272.937995 235.27402344 -273.78744507 235.31054688 C-278.47748213 235.51336751 -283.16456692 235.75016525 -287.8515625 236.015625 C-288.87922226 236.07373856 -288.87922226 236.07373856 -289.92764282 236.13302612 C-307.69743429 237.16530351 -325.41957802 239.16226993 -343.02880859 241.75341797 C-346.14680903 242.1835031 -349.08306664 242.30443359 -352.2265625 242.265625 C-353.18433594 242.25660156 -354.14210938 242.24757813 -355.12890625 242.23828125 C-356.19818359 242.22087891 -356.19818359 242.22087891 -357.2890625 242.203125 C-355.85956609 237.52673221 -353.94337182 233.23505234 -351.7265625 228.890625 C-351.37360107 228.19477295 -351.02063965 227.4989209 -350.65698242 226.78198242 C-349.91090612 225.31657502 -349.16224682 223.85248009 -348.41113281 222.38964844 C-347.68543704 220.97552064 -346.96319191 219.55961442 -346.24511719 218.14160156 C-326.78105142 179.7505375 -299.8788409 145.80584089 -269.6015625 115.390625 C-268.90071533 114.68510498 -268.19986816 113.97958496 -267.4777832 113.25268555 C-262.91062183 108.69949268 -258.18455521 104.39935428 -253.2890625 100.203125 C-251.84273437 98.9346875 -251.84273437 98.9346875 -250.3671875 97.640625 C-223.56241292 74.53816736 -193.83610541 56.07620881 -162.2890625 40.203125 C-161.49741699 39.7999707 -160.70577148 39.39681641 -159.89013672 38.98144531 C-139.08661341 28.4426706 -116.81076298 20.21670477 -94.2890625 14.203125 C-93.35288086 13.95224121 -92.41669922 13.70135742 -91.45214844 13.44287109 C-73.75209536 8.75279156 -55.98680227 5.04980014 -37.8515625 2.515625 C-36.57514893 2.33640503 -36.57514893 2.33640503 -35.27294922 2.15356445 C-23.55462251 0.59959776 -11.81304651 0.04441034 0 0 Z " fill="#002776" transform="translate(1008.2890625,615.796875)"/>
<path d="M0 0 C3.58134194 0.00536458 7.16255826 0.00000613 10.74389648 -0.00634766 C33.59866865 -0.01424189 56.4259969 0.59996891 79.21069336 2.44287109 C80.43070038 2.53998886 80.43070038 2.53998886 81.675354 2.6390686 C150.3749513 8.14689966 220.32172753 19.64094197 285.95092773 41.1015625 C289.51059252 42.24698304 293.08510904 43.33939889 296.66381836 44.42333984 C347.25244426 59.79638413 396.17205344 79.93811806 443.54663086 103.35302734 C446.64722486 104.88539241 449.75565492 106.40106801 452.86694336 107.91162109 C464.61894019 113.65160366 475.98739735 119.9957991 487.32397461 126.51318359 C490.01814098 128.05590127 492.72150887 129.58072904 495.42944336 131.09912109 C514.91144115 142.05164118 533.6759705 154.06341653 552.27319336 166.44287109 C553.30651794 167.12987091 553.30651794 167.12987091 554.36071777 167.83074951 C563.75563317 174.08532277 573.00806845 180.50919496 582.14819336 187.13037109 C583.02233887 187.76354248 583.89648438 188.39671387 584.79711914 189.04907227 C595.08178881 196.53333537 605.23338742 204.16229553 615.14819336 212.13037109 C615.81512207 212.66581543 616.48205078 213.20125977 617.16918945 213.75292969 C620.64330323 216.54713382 624.10514753 219.35465172 627.54663086 222.18896484 C629.64890293 223.92008696 631.75937788 225.59004348 633.93725586 227.22802734 C637.58246671 230.05531986 638.98158093 231.14735778 639.77319336 235.81787109 C639.61587329 237.26184458 639.40034309 238.69990629 639.14819336 240.13037109 C638.94709961 241.58056641 638.94709961 241.58056641 638.74194336 243.06005859 C638.10324458 247.32869541 637.34662118 251.43821737 636.15600586 255.59130859 C635.19841862 258.95399866 634.51976453 262.25430748 633.89819336 265.69287109 C631.89921417 275.98813177 628.99718247 286.04348436 626.14819336 296.13037109 C621.9000965 295.28967843 619.61950309 293.07308282 616.58569336 290.13037109 C611.87445968 285.68507672 607.03666619 281.50249557 601.98803711 277.43896484 C599.43018531 275.35961077 596.91713118 273.24012277 594.41357422 271.09643555 C588.14133839 265.72970184 581.70943438 260.6154651 575.12573242 255.63525391 C572.85023384 253.90362757 570.58906179 252.15408771 568.32788086 250.40380859 C558.25242753 242.62905675 548.0414242 235.17779672 537.48413086 228.07177734 C534.2661648 225.90381806 531.10442444 223.67628418 527.97167969 221.38745117 C459.50899428 171.3967155 378.91751229 133.90543128 246.14819336 91.13037109 C245.35155273 90.90188477 244.55491211 90.67339844 243.73413086 90.43798828 C218.05828831 83.14577681 191.61477567 77.81707929 165.2958374 73.48516846 C162.90632763 73.09041414 160.51773434 72.69035631 158.12915039 72.29003906 C136.50273778 68.67509879 114.95211986 65.30947948 93.09985352 63.39794922 C90.44851966 63.1575967 87.80524649 62.88177351 85.15991211 62.58349609 C5.92167316 53.81002191 -75.56153892 58.96522571 -154.0690918 71.73486328 C-156.85180664 72.13037109 -156.85180664 72.13037109 -159.85180664 72.13037109 C-156.76650087 50.60256345 -147.93131817 28.75118921 -138.85180664 9.13037109 C-137.87469727 9.03240234 -136.89758789 8.93443359 -135.89086914 8.83349609 C-134.41945616 8.68302849 -132.94810903 8.53191631 -131.47680664 8.38037109 C-130.64737549 8.29529297 -129.81794434 8.21021484 -128.96337891 8.12255859 C-123.37199375 7.53612932 -117.79296599 6.88094871 -112.21508789 6.17724609 C-92.11143956 3.6550509 -72.09761068 2.00087118 -51.85180664 1.13037109 C-50.41655136 1.0663208 -50.41655136 1.0663208 -48.95230103 1.00097656 C-32.63057097 0.28365626 -16.33709434 -0.02893294 0 0 Z " fill="#FBFCFC" transform="translate(788.851806640625,848.86962890625)"/>
<path d="M0 0 C5.754375 -0.12375 5.754375 -0.12375 11.625 -0.25 C12.82334473 -0.28641602 14.02168945 -0.32283203 15.25634766 -0.36035156 C21.50633535 -0.4254228 25.29412778 -0.26396989 30 4 C35.43743007 10.17221792 35.42602281 15.16412205 35.26953125 23.0625 C34.91854811 28.18990583 34.39748878 30.17782512 31 34 C24.73625157 39.4078325 19.00961586 39.63574521 11 39.3125 C7.37 39.209375 3.74 39.10625 0 39 C0 26.13 0 13.26 0 0 Z " fill="#0EA045" transform="translate(756,859)"/>
<path d="M0 0 C3.83084349 2.61193874 6.65161815 5.67823629 8.75 9.875 C10.94207739 22.24162527 5.18683875 32.15073916 -0.25 42.875 C-1.9 42.215 -3.55 41.555 -5.25 40.875 C-4.92 39.555 -4.59 38.235 -4.25 36.875 C-4.97445313 36.92140625 -5.69890625 36.9678125 -6.4453125 37.015625 C-12.6159306 37.24599474 -16.45628256 37.20103769 -21.25 32.875 C-26.22376063 27.22910956 -26.65947446 23.65423306 -26.59375 16.2109375 C-25.94375056 9.90298835 -22.76078538 6.02858059 -18.125 1.9375 C-12.55432922 -2.05885078 -6.3763306 -2.20719136 0 0 Z " fill="#079E40" transform="translate(1183.25,940.125)"/>
<path d="M0 0 C5.56715891 2.73105909 9.21009033 6.93158342 12.3125 12.25 C13.97538096 18.90152383 13.81816003 24.27066756 10.5 30.375 C7.42642814 34.97450989 4.34730265 37.52272962 -1 39 C-5.92881918 39.6917641 -9.12769122 38.95756421 -13.36328125 36.2734375 C-17.19043833 33.29574488 -20.17534375 29.50512473 -22 25 C-22.68469154 18.61547373 -22.93619072 12.33290355 -19 7 C-12.8670698 0.99483918 -8.6888874 -0.95055625 0 0 Z " fill="#0A9F42" transform="translate(678,866)"/>
<path d="M0 0 C4.98669007 2.49334503 8.49675474 5.99350949 11 11 C11.6264984 19.72278543 11.54561808 25.87941683 5.6875 32.6875 C0.46498422 37.18129265 -3.79141153 38.58284164 -10.6015625 38.34765625 C-15.72489099 37.60502394 -18.29850981 34.92900052 -21.3125 30.9375 C-24.35147461 25.64743309 -24.62982938 20.97894369 -24 15 C-21.98709093 8.35164889 -18.03985463 4.38032928 -12.1171875 0.890625 C-8.19420502 -0.75963331 -4.16786468 -0.53417253 0 0 Z " fill="#089E40" transform="translate(1134,920)"/>
<path d="M0 0 C3.77702297 2.63513231 6.60374735 5.7074947 8.6875 9.875 C9.7019714 17.27165226 8.63380387 22.56712929 4.4765625 28.7734375 C0.90802042 32.96530571 -3.84266374 35.47183807 -9.36328125 36.11328125 C-14.90146758 36.29501793 -17.96005155 35.62013006 -22.3125 31.875 C-27.00650228 26.67353802 -27.7234749 22.57278908 -27.66015625 15.734375 C-26.96267891 9.99781982 -23.88085746 6.32859959 -19.75 2.5 C-13.35481235 -1.76345843 -7.37591425 -2.50502748 0 0 Z " fill="#079D3F" transform="translate(1399.3125,1070.125)"/>
<path d="M0 0 C25.5009312 7.14377407 25.5009312 7.14377407 29 13 C29.80503292 17.06541625 29.95254041 21.23956421 27.9453125 24.94921875 C26.18765675 27.09688687 24.49320013 28.75339994 22 30 C21.54997081 32.51781038 21.20523374 34.96234974 20.9375 37.5 C20.11803406 44.88196594 20.11803406 44.88196594 19 46 C17.33382885 46.04063832 15.66611905 46.042721 14 46 C12.81775332 42.45325997 13.10670366 40.02477005 13.4375 36.3125 C13.53933594 35.13300781 13.64117188 33.95351563 13.74609375 32.73828125 C13.82988281 31.83464844 13.91367188 30.93101562 14 30 C13.43152344 29.87882813 12.86304688 29.75765625 12.27734375 29.6328125 C7.45754536 28.58677946 2.7267066 27.40795516 -2 26 C-2.13277344 26.60328125 -2.26554687 27.2065625 -2.40234375 27.828125 C-2.57894531 28.62734375 -2.75554687 29.4265625 -2.9375 30.25 C-3.11152344 31.03890625 -3.28554687 31.8278125 -3.46484375 32.640625 C-3.947556 34.76878703 -4.46163178 36.88532842 -5 39 C-6.98 38.67 -8.96 38.34 -11 38 C-12.73116554 33.88403873 -11.10869822 30.40212485 -9.7265625 26.42578125 C-9.48336273 25.70134323 -9.24016296 24.97690521 -8.98959351 24.23051453 C-8.47483931 22.70337062 -7.95507707 21.17790686 -7.43066406 19.65405273 C-6.62546227 17.31384352 -5.83486964 14.9690995 -5.046875 12.62304688 C-4.54511047 11.14034059 -4.04253426 9.65790869 -3.5390625 8.17578125 C-3.30047516 7.47165604 -3.06188782 6.76753082 -2.81607056 6.04206848 C-1.11775781 1.11775781 -1.11775781 1.11775781 0 0 Z " fill="#099E41" transform="translate(1070,899)"/>
<path d="M0 0 C5.46384786 0.90763192 9.75999346 3.19955718 14.625 5.75 C15.48351563 6.18054688 16.34203125 6.61109375 17.2265625 7.0546875 C25.13491268 11.18185775 25.13491268 11.18185775 27 16 C27.75307959 19.89829437 27.35053858 23.16977705 25.8125 26.8125 C23.74902666 29.30289886 21.91540115 30.61518445 19 32 C18.01 32 17.02 32 16 32 C16.03480469 32.56847656 16.06960938 33.13695312 16.10546875 33.72265625 C16.30230592 39.33720226 15.55495317 42.99655005 13 48 C11.35 47.67 9.7 47.34 8 47 C6.6278808 43.29527816 7.5136516 41.55072117 9 38 C9.3813074 35.67402489 9.72460254 33.34087842 10 31 C9.195625 30.7525 8.39125 30.505 7.5625 30.25 C3.25675857 28.73921353 -0.85364007 26.89811144 -5 25 C-5.268125 25.86625 -5.53625 26.7325 -5.8125 27.625 C-6.97111987 30.91791964 -8.38209839 33.91127875 -10 37 C-12.02045442 36.39816251 -14.02111039 35.72693904 -16 35 C-16.33 34.34 -16.66 33.68 -17 33 C-16.03871557 30.71063778 -15.01891255 28.5514233 -13.88671875 26.34765625 C-13.55710648 25.69171982 -13.2274942 25.03578339 -12.88789368 24.35997009 C-12.18783231 22.97028801 -11.48395764 21.58252145 -10.77661133 20.1965332 C-9.6955208 18.07821616 -8.62505003 15.95481477 -7.55664062 13.83007812 C-6.87561517 12.48146001 -6.1939938 11.13314262 -5.51171875 9.78515625 C-5.19079758 9.15070084 -4.8698764 8.51624542 -4.53923035 7.86256409 C-3.14178673 5.12679759 -1.7068981 2.56034714 0 0 Z " fill="#089E40" transform="translate(1213,955)"/>
<path d="M0 0 C0.92039062 -0.02578125 1.84078125 -0.0515625 2.7890625 -0.078125 C6.69850861 0.41793765 9.29820123 2.28459421 12.1875 4.875 C14.03542535 8.5708507 13.9696082 12.19785525 13.375 16.25 C12.818125 17.054375 12.26125 17.85875 11.6875 18.6875 C10.10160212 21.12491167 10.10160212 21.12491167 10.84375 23.52734375 C11.40967194 25.26964971 11.99592882 27.00547201 12.6015625 28.734375 C13.62844336 32.07433092 13.60094492 34.78551123 13.375 38.25 C11.395 38.25 9.415 38.25 7.375 38.25 C7.20484375 37.47914063 7.0346875 36.70828125 6.859375 35.9140625 C6.61703125 34.91117188 6.3746875 33.90828125 6.125 32.875 C5.89296875 31.87726562 5.6609375 30.87953125 5.421875 29.8515625 C4.60640909 27.20761072 4.60640909 27.20761072 2.6875 25.90625 C-0.39995235 25.03008109 -3.17056515 25.0609113 -6.375 25.125 C-8.4375 25.16625 -10.5 25.2075 -12.625 25.25 C-12.625 30.2 -12.625 35.15 -12.625 40.25 C-14.935 40.25 -17.245 40.25 -19.625 40.25 C-19.91322426 35.98182804 -20.19791877 31.71343888 -20.47949219 27.44482422 C-20.57555202 25.99586801 -20.67253848 24.54697289 -20.77050781 23.09814453 C-20.91200717 21.00308778 -21.05005657 18.90782629 -21.1875 16.8125 C-21.27128906 15.55566406 -21.35507812 14.29882812 -21.44140625 13.00390625 C-21.63361497 9.07385134 -21.65549495 5.18384807 -21.625 1.25 C-14.42543491 0.6992136 -7.21966845 0.18004161 0 0 Z " fill="#099E41" transform="translate(726.625,860.75)"/>
<path d="M0 0 C3.3 0 6.6 0 10 0 C11.89453424 5.2057022 13.02431209 10.46124614 14.125 15.875 C14.30675781 16.75414062 14.48851562 17.63328125 14.67578125 18.5390625 C15.120423 20.69206468 15.56173829 22.84569171 16 25 C16.30292969 24.26136719 16.60585938 23.52273438 16.91796875 22.76171875 C19.80417569 15.77265763 22.8253197 8.86271315 26 2 C28.97 2.33 31.94 2.66 35 3 C35.12628727 11.25602999 34.62722697 19.39476502 34 27.625 C33.85691406 29.56052734 33.85691406 29.56052734 33.7109375 31.53515625 C33.47721854 34.69036219 33.24016501 37.84527929 33 41 C30.69 41 28.38 41 26 41 C25.97237579 39.04175069 25.95332986 37.08338017 25.9375 35.125 C25.92589844 34.03445313 25.91429687 32.94390625 25.90234375 31.8203125 C26.02097242 27.17955889 26.48448945 22.61111694 27 18 C26.76289307 18.63091553 26.52578613 19.26183105 26.28149414 19.91186523 C25.21129388 22.75480595 24.13695457 25.59616458 23.0625 28.4375 C22.68931641 29.43072266 22.31613281 30.42394531 21.93164062 31.44726562 C21.57392578 32.39150391 21.21621094 33.33574219 20.84765625 34.30859375 C20.51773682 35.18314209 20.18781738 36.05769043 19.84790039 36.95874023 C19 39 19 39 18 40 C16.00041636 40.04080783 13.99954746 40.04254356 12 40 C10.19740348 35.0938025 9.2277842 30.25659668 8.375 25.125 C7.92125 22.44375 7.4675 19.7625 7 17 C6.01 24.26 5.02 31.52 4 39 C2.02 39 0.04 39 -2 39 C-2.34242741 25.89263976 -1.27643742 13.03789649 0 0 Z " fill="#0A9E41" transform="translate(858,861)"/>
<path d="M0 0 C5.64432888 0.4657037 10.79754193 1.61556583 16.1875 3.3125 C16.87263672 3.51294922 17.55777344 3.71339844 18.26367188 3.91992188 C23.37743598 5.5096676 27.302234 7.43561314 30.30859375 11.9765625 C31.60975752 15.78448811 31.20677433 19.20259601 30 23 C27.64342236 26.52768178 24.92742982 28.56455614 20.76953125 29.50390625 C13.50485219 29.87128806 6.77115973 27.37733508 0 25 C-0.13277344 25.75925781 -0.26554688 26.51851562 -0.40234375 27.30078125 C-0.57894531 28.29464844 -0.75554688 29.28851562 -0.9375 30.3125 C-1.11152344 31.29863281 -1.28554688 32.28476562 -1.46484375 33.30078125 C-2 36 -2 36 -3 39 C-5.31 38.67 -7.62 38.34 -10 38 C-9.21823241 32.67529405 -7.94731814 27.52217955 -6.625 22.3125 C-6.29000488 20.98545044 -6.29000488 20.98545044 -5.94824219 19.6315918 C-1.30366668 1.30366668 -1.30366668 1.30366668 0 0 Z " fill="#099E41" transform="translate(1020,886)"/>
<path d="M0 0 C4.19921466 -0.02476851 8.39839029 -0.04289246 12.59765625 -0.05493164 C14.02539816 -0.05995206 15.45313496 -0.06676972 16.88085938 -0.07543945 C18.93621079 -0.08760553 20.99149407 -0.09325128 23.046875 -0.09765625 C24.90070801 -0.10551147 24.90070801 -0.10551147 26.79199219 -0.11352539 C29.4145671 -0.02071737 31.51644594 0.21643327 34 1 C34 3.31 34 5.62 34 8 C24.92551747 8.11157151 16.03721311 7.94242818 7 7 C7 9.64 7 12.28 7 15 C14.26 15 21.52 15 29 15 C29 17.31 29 19.62 29 22 C21.41 22 13.82 22 6 22 C6 25.3 6 28.6 6 32 C15.24 32 24.48 32 34 32 C34 34.64 34 37.28 34 40 C22.45 39.67 10.9 39.34 -1 39 C-1 19.44425676 -1 19.44425676 -0.5 9.9375 C-0.45230469 8.96490234 -0.40460937 7.99230469 -0.35546875 6.99023438 C-0.24067611 4.65994381 -0.12223331 2.3299099 0 0 Z " fill="#0EA044" transform="translate(807,859)"/>
<path d="M0 0 C4.02646726 0.59361371 6.9329847 1.87929135 10.44921875 3.90625 C11.96805664 4.77443359 11.96805664 4.77443359 13.51757812 5.66015625 C15.08668945 6.57087891 15.08668945 6.57087891 16.6875 7.5 C18.77463476 8.69809929 20.86186926 9.89602486 22.94921875 11.09375 C23.87049561 11.62677734 24.79177246 12.15980469 25.7409668 12.70898438 C27.14057403 13.50884637 28.55814575 14.27907287 30 15 C28.125 19.75 28.125 19.75 27 22 C21.92365174 20.2010497 17.36286389 17.50973545 12.6875 14.875 C11.85154297 14.40707031 11.01558594 13.93914063 10.15429688 13.45703125 C8.10133767 12.3073741 6.04997798 11.15496198 4 10 C1.65712582 12.67247634 1.65712582 12.67247634 1 16 C2.61503306 17.22982734 2.61503306 17.22982734 4.71875 18.3828125 C5.48574219 18.82753906 6.25273438 19.27226563 7.04296875 19.73046875 C7.85378906 20.19066406 8.66460938 20.65085937 9.5 21.125 C10.31082031 21.59292969 11.12164063 22.06085937 11.95703125 22.54296875 C13.96762641 23.70201772 15.98196761 24.85396471 18 26 C17.505 28.475 17.505 28.475 17 31 C14 32 14 32 12.23828125 31.27148438 C11.60277344 30.88283203 10.96726562 30.49417969 10.3125 30.09375 C9.61382813 29.67996094 8.91515625 29.26617188 8.1953125 28.83984375 C6 27.5 6 27.5 3.8046875 26.16015625 C3.10601563 25.74636719 2.40734375 25.33257813 1.6875 24.90625 C1.05199219 24.51759766 0.41648437 24.12894531 -0.23828125 23.72851562 C-2.18561624 22.69811772 -2.18561624 22.69811772 -5 24 C-6.64820195 26.60242414 -7 27.86248779 -7 31 C-6.00818726 31.52956299 -6.00818726 31.52956299 -4.99633789 32.06982422 C-2.01523308 33.66572946 0.96115606 35.27023467 3.9375 36.875 C4.97841797 37.43058594 6.01933594 37.98617187 7.09179688 38.55859375 C8.08115234 39.09355469 9.07050781 39.62851562 10.08984375 40.1796875 C11.00628662 40.67194824 11.92272949 41.16420898 12.86694336 41.67138672 C15 43 15 43 16 45 C14.5625 47.625 14.5625 47.625 13 50 C8.65162313 48.67904588 4.89548948 46.98197857 0.9453125 44.7421875 C-0.16328125 44.11699219 -1.271875 43.49179687 -2.4140625 42.84765625 C-3.55617188 42.19667969 -4.69828125 41.54570313 -5.875 40.875 C-7.05181177 40.20915523 -8.22889276 39.54378604 -9.40625 38.87890625 C-12.27351326 37.25725735 -15.13795084 35.63082801 -18 34 C-16.66383846 30.49463309 -15.12400929 27.23330793 -13.3203125 23.9453125 C-12.80339844 23.00042969 -12.28648438 22.05554688 -11.75390625 21.08203125 C-11.21636719 20.10621094 -10.67882813 19.13039063 -10.125 18.125 C-9.33029297 16.67287109 -9.33029297 16.67287109 -8.51953125 15.19140625 C-5.72752136 10.09927903 -2.90083688 5.03091999 0 0 Z " fill="#099E41" transform="translate(1258,978)"/>
<path d="M0 0 C6.13852865 0.05540188 10.98892405 3.77818127 15.625 7.5 C18.86368257 11.23565283 20.76822769 13.54206955 20.75 18.5 C20.75386719 19.551875 20.75386719 19.551875 20.7578125 20.625 C20.625 22.5 20.625 22.5 19.625 24.5 C16.70982708 23.42598892 14.84689824 22.72189824 12.625 20.5 C12.3775 19.22125 12.13 17.9425 11.875 16.625 C11.06159725 13.08088801 10.65791757 12.52933957 7.75 9.9375 C4.83354771 8.2736498 4.83354771 8.2736498 2.25 8.75 C1.71375 8.9975 1.1775 9.245 0.625 9.5 C0.73322374 13.93717314 1.82949697 16.01817658 4.9375 19 C5.56398438 19.58910156 6.19046875 20.17820312 6.8359375 20.78515625 C10.48358437 24.28148152 12.82550796 27.47555923 13.1875 32.5625 C12.625 36.5 12.625 36.5 10.6875 39.4375 C6.64149258 42.16236214 3.48979617 43.03702295 -1.375 42.5 C-9.32664657 39.55685809 -15.30536699 33.88563028 -19.375 26.5 C-19.8125 23.3125 -19.8125 23.3125 -19.375 20.5 C-17.875 18.625 -17.875 18.625 -16.375 17.5 C-13.4375 19.0625 -13.4375 19.0625 -10.375 21.5 C-10.03573053 23.83247761 -9.70259934 26.16585471 -9.375 28.5 C-5.99264872 32.03609452 -3.30580364 34.06492909 1.625 34.5 C2.51842745 32.27566548 2.51842745 32.27566548 2.625 29.5 C0.88078492 26.66292771 0.88078492 26.66292771 -1.625 24 C-9.08292617 15.54451683 -9.08292617 15.54451683 -9.875 10 C-9.24788345 5.61018413 -7.72722645 4.2798951 -4.375 1.5 C-3.375 0.5 -3.375 0.5 0 0 Z " fill="#0A9E41" transform="translate(1348.375,1035.5)"/>
<path d="M0 0 C5.71666914 2.8040624 10.63799313 6.57740828 14 12 C14.55776218 15.50405887 14.62075401 18.75849198 13 22 C10.08482708 20.92598892 8.22189824 20.22189824 6 18 C5.7525 16.88625 5.505 15.7725 5.25 14.625 C4.27320213 10.83167387 4.27320213 10.83167387 1.1875 8.5 C-2.24498131 6.88471468 -3.48973588 6.76108325 -7 8 C-6.40808395 11.46693687 -5.18045537 13.24590819 -2.8125 15.8125 C-2.18859375 16.50859375 -1.5646875 17.2046875 -0.921875 17.921875 C0.29875465 19.24174283 1.5366631 20.54599637 2.796875 21.828125 C5.6677447 24.8630444 6.89670693 26.40090018 7.625 30.625 C6.89633884 34.55977027 5.8521815 36.22704577 3 39 C-0.73329196 41.25860283 -3.32344996 41.26102842 -7.55859375 40.66796875 C-14.60169203 38.74097706 -19.80686761 33.76555703 -24 28 C-25.60725635 24.78548731 -25.05748185 21.56387464 -25 18 C-21 18 -21 18 -18.875 19.0625 C-17 21 -17 21 -16.125 24.4375 C-15.28152837 28.17102257 -15.28152837 28.17102257 -12.25 30.4375 C-8.81449989 32.08918275 -6.75547946 32.35766471 -3 32 C-3.48277192 27.40957545 -5.14626466 25.34274054 -8.3125 22.0625 C-16.93814886 12.76275736 -16.93814886 12.76275736 -17.125 7.4375 C-16.00047049 4.00143762 -14.90116417 1.9639663 -11.9296875 -0.17578125 C-7.88829834 -1.90196164 -4.11046308 -1.22571038 0 0 Z " fill="#089E40" transform="translate(1313,1009)"/>
<path d="M0 0 C9.97048692 0.44552253 19.27391571 1.83410728 29 4 C28.67 5.98 28.34 7.96 28 10 C20.37404682 10.45755719 13.3970146 8.74536299 6 7 C6.33 8.98 6.66 10.96 7 13 C12.28 13.99 17.56 14.98 23 16 C23 17.98 23 19.96 23 22 C20.95809019 21.85761163 18.91647955 21.71092972 16.875 21.5625 C15.73804688 21.48128906 14.60109375 21.40007813 13.4296875 21.31640625 C10.2459522 21.02269035 7.14489093 20.56875687 4 20 C3.67 22.97 3.34 25.94 3 29 C3.99966797 29.07347656 3.99966797 29.07347656 5.01953125 29.1484375 C11.77757799 29.69664269 18.35188914 30.67552143 25 32 C24.67 33.98 24.34 35.96 24 38 C14.12043934 37.50940538 4.66639286 35.97298648 -5 34 C-3.39450297 22.65695436 -1.78460856 11.31651779 0 0 Z " fill="#099E41" transform="translate(941,875)"/>
<path d="M0 0 C13.125 -0.53571429 13.125 -0.53571429 16.6875 1.75 C20.32265476 5.28690734 20.9055187 6.80953568 21.3125 11.9375 C21.18263292 16.59539922 19.67047579 19.36104262 16.34375 22.625 C11.56960478 25.42583186 5.33545689 24.14820714 0 24 C0 16.08 0 8.16 0 0 Z " fill="#FAFDFB" transform="translate(764,866)"/>
<path d="M0 0 C2.69990662 1.79993774 4.5418865 3.083773 6 6 C6.43011819 10.21019538 6.4699635 13.88692855 4.8125 17.8125 C1.6422795 21.63862819 -0.47632049 23.75512294 -5.5 24.5625 C-9 24 -9 24 -11.875 22.0625 C-14.65843422 18.0510801 -15.55810066 14.86922609 -15 10 C-13.44731535 6.16087255 -11.60615621 2.96684305 -8.0078125 0.80078125 C-5.13261749 -0.3459405 -3.07029314 -0.37595426 0 0 Z " fill="#F7FCF9" transform="translate(1132,927)"/>
<path d="M0 0 C2.625 2 2.625 2 4 5 C4.41100044 9.74836682 3.66620067 13.66324573 0.6875 17.4375 C-2.67812612 20.64658537 -4.35656156 21.79019935 -8.9375 22.375 C-12.7368243 21.90977662 -14.28638434 20.63608379 -17 18 C-18.60842789 14.78314421 -18.46778535 11.4888991 -18 8 C-13.91670704 -0.01535285 -8.55624332 -2.54934624 0 0 Z " fill="#F9FCFA" transform="translate(1397,1077)"/>
<path d="M0 0 C2.92612619 1.82205543 5.43486248 3.86972495 7 7 C7.58306655 12.09766759 8.10620215 17.3409017 5 21.6875 C1.64525309 24.27345074 0.05153284 24.79144512 -4.0703125 24.45703125 C-7.19077408 23.71797456 -8.85400819 22.33534403 -11 20 C-13.25059535 16.03466534 -13.47404865 12.50346218 -13 8 C-9.78925583 2.13208824 -6.93098855 -0.95131215 0 0 Z " fill="#F9FCFA" transform="translate(676,873)"/>
<path d="M0 0 C0.66 0 1.32 0 2 0 C2.99 3.63 3.98 7.26 5 11 C8.96 11 12.92 11 17 11 C14.42215154 13.64752004 12.08351902 15.94432065 9 18 C9.55312735 22.02992782 10.1558062 26.02022924 11 30 C8.73168707 28.94685471 6.95955895 27.96477715 5.0625 26.3125 C3.08228895 24.79307924 3.08228895 24.79307924 0.6875 25 C-3.01857299 26.3790039 -5.90042354 28.57929331 -9 31 C-8.84402344 30.40832031 -8.68804688 29.81664062 -8.52734375 29.20703125 C-6.79005324 23.03681567 -6.79005324 23.03681567 -8 17 C-9.76042922 15.51753329 -11.56199827 14.25031901 -13.50390625 13.015625 C-13.99761719 12.68046875 -14.49132812 12.3453125 -15 12 C-15 11.67 -15 11.34 -15 11 C-9.06 10.505 -9.06 10.505 -3 10 C-2.01 6.7 -1.02 3.4 0 0 Z " fill="#EFF1F6" transform="translate(859,1224)"/>
<path d="M0 0 C0.66 0.33 1.32 0.66 2 1 C2.91223868 4.29419525 3.40281175 7.63015202 4 11 C8.29 11 12.58 11 17 11 C12 16 12 16 9 18 C8.34 18 7.68 18 7 18 C7.30035156 18.77085937 7.60070312 19.54171875 7.91015625 20.3359375 C8.29042969 21.33882812 8.67070313 22.34171875 9.0625 23.375 C9.44535156 24.37273438 9.82820312 25.37046875 10.22265625 26.3984375 C11 29 11 29 10 31 C9.46890625 30.55527344 8.9378125 30.11054687 8.390625 29.65234375 C7.68421875 29.08644531 6.9778125 28.52054688 6.25 27.9375 C5.55390625 27.36902344 4.8578125 26.80054688 4.140625 26.21484375 C2.11280136 24.79448834 2.11280136 24.79448834 -0.03125 25.1875 C-2.0457684 26.01888854 -3.87821465 26.94662796 -5.75 28.0625 C-6.8225 28.701875 -7.895 29.34125 -9 30 C-8.34 26.04 -7.68 22.08 -7 18 C-8.485 17.030625 -9.97 16.06125 -11.5 15.0625 C-13.01935304 14.0707001 -14.52493556 13.05654417 -16 12 C-16 11.67 -16 11.34 -16 11 C-11.71 11 -7.42 11 -3 11 C-2.690625 9.55625 -2.38125 8.1125 -2.0625 6.625 C-1.54516353 4.21076314 -1.10514766 2.21029533 0 0 Z " fill="#EFF2F6" transform="translate(690,934)"/>
<path d="M0 0 C2.62695917 2.16724131 3.79661748 3.63890158 4.3046875 7.0390625 C4.375 9.1875 4.375 9.1875 4 13 C3.34 13.66 2.68 14.32 2 15 C0.02 14.34 -1.96 13.68 -4 13 C-4.66 14.65 -5.32 16.3 -6 18 C-4.35 18.33 -2.7 18.66 -1 19 C-1 19.66 -1 20.32 -1 21 C-4.41540279 23.10178633 -7.02251415 23.56821226 -11 23 C-13.57285724 20.827365 -15.48996919 19.02006162 -17 16 C-17.39231417 11.29223 -17.47336758 8.92920303 -15.3125 4.6875 C-10.74175061 -0.62445199 -6.71782572 -2.25797483 0 0 Z " fill="#F7FBF8" transform="translate(1181,947)"/>
<path d="M0 0 C0.66 0 1.32 0 2 0 C2.99 3.63 3.98 7.26 5 11 C8.96 11 12.92 11 17 11 C13 15 13 15 9 18 C9.66 21.96 10.32 25.92 11 30 C6.545 27.03 6.545 27.03 2 24 C-0.64609342 25.32304671 -3.19540901 26.65119751 -5.75 28.125 C-6.8225 28.74375 -7.895 29.3625 -9 30 C-8.34 26.04 -7.68 22.08 -7 18 C-8.32 17.030625 -9.64 16.06125 -11 15.0625 C-12.35348244 14.06853634 -13.69243643 13.0536394 -15 12 C-15 11.67 -15 11.34 -15 11 C-11.04 11 -7.08 11 -3 11 C-2.01 7.37 -1.02 3.74 0 0 Z " fill="#F2F4F8" transform="translate(1023,1191)"/>
<path d="M0 0 C3.106467 3.106467 3.69089782 6.83467488 5 11 C8.96 11.33 12.92 11.66 17 12 C14.03455808 14.38882821 11.04751801 16.71436149 8 19 C9.485 24.94 9.485 24.94 11 31 C7.23801156 29.11900578 3.64081132 27.10046807 0 25 C-4.455 27.97 -4.455 27.97 -9 31 C-8.34 27.04 -7.68 23.08 -7 19 C-8.32 18.030625 -9.64 17.06125 -11 16.0625 C-12.35348244 15.06853634 -13.69243643 14.0536394 -15 13 C-15 12.67 -15 12.34 -15 12 C-11.04 12 -7.08 12 -3 12 C-2.690625 10.576875 -2.38125 9.15375 -2.0625 7.6875 C-1.48800637 5.04482928 -0.85697694 2.57093082 0 0 Z " fill="#F3F5F8" transform="translate(726,1105)"/>
<path d="M0 0 C3.45854519 3.45854519 4 7.21904213 4 12 C8.29 12 12.58 12 17 12 C14.03224191 14.37420647 11.0404678 16.71964915 8 19 C9.485 24.94 9.485 24.94 11 31 C7.23801156 29.11900578 3.64081132 27.10046807 0 25 C-4.455 27.97 -4.455 27.97 -9 31 C-8.34 27.04 -7.68 23.08 -7 19 C-8.32 18.030625 -9.64 17.06125 -11 16.0625 C-12.35348244 15.06853634 -13.69243643 14.0536394 -15 13 C-15 12.67 -15 12.34 -15 12 C-11.04 12 -7.08 12 -3 12 C-2.690625 10.576875 -2.38125 9.15375 -2.0625 7.6875 C-1.48800637 5.04482928 -0.85697694 2.57093082 0 0 Z " fill="#F3F5F8" transform="translate(1150,880)"/>
<path d="M0 0 C2.62895146 3.94342719 3.05927998 7.36359419 4 12 C7.96 12 11.92 12 16 12 C13.42215154 14.64752004 11.08351902 16.94432065 8 19 C8.66 22.96 9.32 26.92 10 31 C5.545 28.03 5.545 28.03 1 25 C-2.92413613 26.78275345 -2.92413613 26.78275345 -5.625 29.125 C-8 31 -8 31 -10 31 C-9.01 27.04 -8.02 23.08 -7 19 C-8.485 18.030625 -9.97 17.06125 -11.5 16.0625 C-13.01935304 15.0707001 -14.52493556 14.05654417 -16 13 C-16 12.67 -16 12.34 -16 12 C-10.06 11.505 -10.06 11.505 -4 11 C-3.2884375 8.5559375 -3.2884375 8.5559375 -2.5625 6.0625 C-1.125 1.125 -1.125 1.125 0 0 Z " fill="#F4F5F9" transform="translate(1310,1150)"/>
<path d="M0 0 C2.12508244 3.18762365 2.5020163 5.26512223 3 9 C6.63 9 10.26 9 14 9 C9.25 13.875 9.25 13.875 7 15 C7.33 18.3 7.66 21.6 8 25 C6.948125 24.29875 5.89625 23.5975 4.8125 22.875 C1.78188284 21.09533142 1.78188284 21.09533142 -1.6875 21.625 C-2.8321875 22.305625 -2.8321875 22.305625 -4 23 C-5.98 23.99 -5.98 23.99 -8 25 C-7.01 21.7 -6.02 18.4 -5 15 C-6.1446875 14.566875 -6.1446875 14.566875 -7.3125 14.125 C-10 13 -10 13 -13 11 C-13 10.34 -13 9.68 -13 9 C-9.7 9 -6.4 9 -3 9 C-2.01 6.03 -1.02 3.06 0 0 Z " fill="#E8EBF2" transform="translate(1146,1285)"/>
<path d="M0 0 C2.76223278 2.76223278 2.57856291 5.20706617 3 9 C6.63 9 10.26 9 14 9 C9.375 13.875 9.375 13.875 6 15 C6.99 18.63 7.98 22.26 9 26 C7.30729167 24.66536458 5.61458333 23.33072917 3.921875 21.99609375 C2.0563971 20.80468647 2.0563971 20.80468647 -0.03125 21.21875 C-2.97698939 22.3876942 -5.41956638 24.18196723 -8 26 C-6.125 18.375 -6.125 18.375 -5 15 C-5.5775 14.7525 -6.155 14.505 -6.75 14.25 C-9.3002997 12.83316683 -11.01785701 11.12372463 -13 9 C-9.7 8.67 -6.4 8.34 -3 8 C-2.01 5.36 -1.02 2.72 0 0 Z " fill="#E8EBF2" transform="translate(1228,1275)"/>
<path d="M0 0 C2 1 2 1 2.6328125 2.84765625 C3.08854167 4.8984375 3.54427083 6.94921875 4 9 C7.3 9 10.6 9 14 9 C14 9.66 14 10.32 14 11 C8.58823529 15 8.58823529 15 6 15 C6.99 18.3 7.98 21.6 9 25 C5 23 5 23 2.75 21.5625 C-0.67711178 20.86149986 -1.41569596 21.56130435 -4.3125 23.375 C-5.529375 24.24125 -6.74625 25.1075 -8 26 C-7.34 22.37 -6.68 18.74 -6 15 C-7.155 14.195625 -8.31 13.39125 -9.5 12.5625 C-10.68653894 11.73616038 -11.8588092 10.88791631 -13 10 C-13 9.67 -13 9.34 -13 9 C-9.37 9 -5.74 9 -2 9 C-1.34 6.03 -0.68 3.06 0 0 Z " fill="#E7EBF2" transform="translate(676,1145)"/>
<path d="M0 0 C2 1 2 1 2.6328125 2.84765625 C3.08854167 4.8984375 3.54427083 6.94921875 4 9 C7.3 9 10.6 9 14 9 C9.375 13.875 9.375 13.875 6 15 C6.99 18.3 7.98 21.6 9 25 C5 23 5 23 2 21 C-1.96125928 21.2731903 -4.84249552 23.77539457 -8 26 C-7.34 22.37 -6.68 18.74 -6 15 C-7.155 14.195625 -8.31 13.39125 -9.5 12.5625 C-10.68653894 11.73616038 -11.8588092 10.88791631 -13 10 C-13 9.67 -13 9.34 -13 9 C-9.37 9 -5.74 9 -2 9 C-1.34 6.03 -0.68 3.06 0 0 Z " fill="#EBEEF4" transform="translate(811,1149)"/>
<path d="M0 0 C2.76223278 2.76223278 2.57856291 5.20706617 3 9 C6.63 9 10.26 9 14 9 C11.74259377 11.33524782 9.7194239 13.18705073 7 15 C7.66 18.3 8.32 21.6 9 25 C5.88910379 23.44455189 2.96148509 21.80979645 0 20 C-3.465 22.475 -3.465 22.475 -7 25 C-8.27351308 22.45297384 -7.80191925 21.5717055 -7.0625 18.875 C-6.86785156 18.15054687 -6.67320312 17.42609375 -6.47265625 16.6796875 C-6.31667969 16.12539062 -6.16070313 15.57109375 -6 15 C-6.5053125 14.65066406 -7.010625 14.30132813 -7.53125 13.94140625 C-8.1809375 13.48636719 -8.830625 13.03132813 -9.5 12.5625 C-10.1496875 12.11003906 -10.799375 11.65757813 -11.46875 11.19140625 C-12.22671875 10.60166016 -12.22671875 10.60166016 -13 10 C-13 9.67 -13 9.34 -13 9 C-9.7 8.67 -6.4 8.34 -3 8 C-2.01 5.36 -1.02 2.72 0 0 Z " fill="#EFF1F6" transform="translate(868,1027)"/>
<path d="M0 0 C0.66 0 1.32 0 2 0 C2.66 2.97 3.32 5.94 4 9 C7.3 9 10.6 9 14 9 C12.37660195 10.70884005 10.70680947 12.37446717 9 14 C8.34 14 7.68 14 7 14 C7.66 17.63 8.32 21.26 9 25 C8.113125 24.319375 7.22625 23.63875 6.3125 22.9375 C3.2706339 20.76871359 3.2706339 20.76871359 0.4375 21.0625 C-2.26507997 22.10195384 -4.58272882 23.41150751 -7 25 C-6.34 21.37 -5.68 17.74 -5 14 C-7.475 13.01 -7.475 13.01 -10 12 C-10.66 11.01 -11.32 10.02 -12 9 C-8.7 9 -5.4 9 -2 9 C-1.34 6.03 -0.68 3.06 0 0 Z " fill="#EFF2F6" transform="translate(1023,1076)"/>
<path d="M0 0 C0.66 0.33 1.32 0.66 2 1 C2.90591398 3.95820059 3.40058396 6.96010437 4 10 C7.3 10 10.6 10 14 10 C11.66666667 12.33333333 9.33333333 14.66666667 7 17 C7.19890456 19.23344065 7.19890456 19.23344065 7.875 21.625 C8.07867188 22.44226562 8.28234375 23.25953125 8.4921875 24.1015625 C8.65976563 24.72804688 8.82734375 25.35453125 9 26 C6.69 24.35 4.38 22.7 2 21 C-0.95409701 22.37154504 -3.44008376 23.98863724 -6 26 C-6.66 25.67 -7.32 25.34 -8 25 C-7.01 21.7 -6.02 18.4 -5 15 C-5.78375 14.731875 -6.5675 14.46375 -7.375 14.1875 C-10 13 -10 13 -12 10 C-8.7 10 -5.4 10 -2 10 C-1.34 6.7 -0.68 3.4 0 0 Z " fill="#F0F3F7" transform="translate(1326,1189)"/>
<path d="M0 0 C0.66 0.33 1.32 0.66 2 1 C2.90591398 3.95820059 3.40058396 6.96010437 4 10 C7.3 10 10.6 10 14 10 C10 14 10 14 8.125 15.25 C6.77557079 16.93419687 6.77557079 16.93419687 7.26171875 18.96484375 C7.76526486 20.99688445 8.3774269 23.00121267 9 25 C8.443125 24.71125 7.88625 24.4225 7.3125 24.125 C4.91505355 22.9586747 2.48403061 21.9660119 0 21 C-1.98 22.65 -3.96 24.3 -6 26 C-6.66 25.67 -7.32 25.34 -8 25 C-7.01 21.7 -6.02 18.4 -5 15 C-6.32 14.34 -7.64 13.68 -9 13 C-9.99 12.01 -10.98 11.02 -12 10 C-8.7 10 -5.4 10 -2 10 C-1.855625 8.906875 -1.71125 7.81375 -1.5625 6.6875 C-1 3 -1 3 0 0 Z " fill="#F0F2F7" transform="translate(1301,1222)"/>
<path d="M0 0 C2.29633824 3.44450737 2.54016485 5.93812283 3 10 C6.3 10 9.6 10 13 10 C11.37660195 11.70884005 9.70680947 13.37446717 8 15 C7.34 15 6.68 15 6 15 C6.66 18.3 7.32 21.6 8 25 C6.9275 24.29875 5.855 23.5975 4.75 22.875 C1.9743498 21.16790853 1.9743498 21.16790853 -1.125 21.5625 C-1.74375 22.036875 -2.3625 22.51125 -3 23 C-3.9075 23.53625 -4.815 24.0725 -5.75 24.625 C-6.86375 25.305625 -6.86375 25.305625 -8 26 C-7.34 22.7 -6.68 19.4 -6 16 C-7.155 15.195625 -8.31 14.39125 -9.5 13.5625 C-10.68653894 12.73616038 -11.8588092 11.88791631 -13 11 C-13 10.67 -13 10.34 -13 10 C-9.7 10 -6.4 10 -3 10 C-2.690625 8.535625 -2.38125 7.07125 -2.0625 5.5625 C-1.125 1.125 -1.125 1.125 0 0 Z " fill="#F2F4F8" transform="translate(1071,1112)"/>
<path d="M0 0 C2.62749537 0.78405898 5.25179313 1.57682765 7.875 2.375 C8.62136719 2.59671875 9.36773438 2.8184375 10.13671875 3.046875 C15.7734375 4.7734375 15.7734375 4.7734375 18 7 C17.75 10.0625 17.75 10.0625 17 13 C12.91718808 15.04140596 7.63655019 13.46582528 3.40625 12.26171875 C1.25543837 11.54364714 -0.8775881 10.79778603 -3 10 C-2.69201674 8.51988629 -2.378482 7.04092675 -2.0625 5.5625 C-1.88847656 4.73878906 -1.71445313 3.91507813 -1.53515625 3.06640625 C-1 1 -1 1 0 0 Z " fill="#F3FAF6" transform="translate(1074,908)"/>
<path d="M0 0 C5.33989586 1.50612447 11.98177802 3.98177802 16 8 C16.1875 10.9375 16.1875 10.9375 16 14 C14 16 14 16 11.80078125 16.34375 C8.04121942 15.8823254 5.47406716 14.35906829 2.1875 12.5 C1.59001953 12.16613281 0.99253906 11.83226562 0.37695312 11.48828125 C-1.08734612 10.66827367 -2.54443137 9.83540688 -4 9 C-2.78534783 5.92254092 -1.52352768 2.93823196 0 0 Z " fill="#F4FAF6" transform="translate(1216,964)"/>
<path d="M0 0 C4.59092706 -0.22058508 8.05455252 0.4638409 12.375 2 C13.43460938 2.37125 14.49421875 2.7425 15.5859375 3.125 C16.38257813 3.41375 17.17921875 3.7025 18 4 C18.6875 6.8125 18.6875 6.8125 19 10 C17.82421875 11.88671875 17.82421875 11.88671875 16 13 C14.01953125 13.14453125 14.01953125 13.14453125 11.8125 12.8125 C11.02617188 12.69648437 10.23984375 12.58046875 9.4296875 12.4609375 C5.90237817 11.79176949 2.46394492 10.94471225 -1 10 C-0.67 6.7 -0.34 3.4 0 0 Z " fill="#F4FAF6" transform="translate(1024,895)"/>
<path d="M0 0 C1 1.8125 1 1.8125 0.8125 4.375 C0 6.8125 0 6.8125 -2 8.8125 C-4.89967757 9.11925232 -7.71783178 9.32423371 -10.625 9.4375 C-11.42679688 9.47617187 -12.22859375 9.51484375 -13.0546875 9.5546875 C-15.03607556 9.64903931 -17.01800645 9.73186215 -19 9.8125 C-19 6.5125 -19 3.2125 -19 -0.1875 C-3.22702374 -1.91604534 -3.22702374 -1.91604534 0 0 Z " fill="#F8FCF9" transform="translate(732,869.1875)"/>
<path d="M0 0 C0.66 0.33 1.32 0.66 2 1 C2.625 4.0625 2.625 4.0625 3 7 C5.97 7 8.94 7 12 7 C8.25 10.875 8.25 10.875 6 12 C6.66 14.64 7.32 17.28 8 20 C7.4225 19.690625 6.845 19.38125 6.25 19.0625 C3.23632787 17.62702436 3.23632787 17.62702436 0 17 C-2.13344768 18.3916876 -2.13344768 18.3916876 -4 20 C-4.66 20 -5.32 20 -6 20 C-5.731875 18.783125 -5.46375 17.56625 -5.1875 16.3125 C-4.82432666 14.13313307 -4.82432666 14.13313307 -5 12 C-7.27127334 8.97590636 -7.27127334 8.97590636 -10 7 C-7.36 6.67 -4.72 6.34 -2 6 C-1.34 4.02 -0.68 2.04 0 0 Z " fill="#E3E7EF" transform="translate(1226,1238)"/>
<path d="M0 0 C0.66 0 1.32 0 2 0 C2.33 2.31 2.66 4.62 3 7 C5.97 7 8.94 7 12 7 C10.37660195 8.70884005 8.70680947 10.37446717 7 12 C6.34 12 5.68 12 5 12 C5.350625 12.5775 5.70125 13.155 6.0625 13.75 C7.14917407 16.35801776 6.93065133 17.39417629 6 20 C5.443125 19.46375 4.88625 18.9275 4.3125 18.375 C3.549375 17.92125 2.78625 17.4675 2 17 C-0.59047977 17.75285597 -0.59047977 17.75285597 -3 19 C-3.99 19 -4.98 19 -6 19 C-5.5978125 17.4221875 -5.5978125 17.4221875 -5.1875 15.8125 C-4.5625 11.85416667 -4.5625 11.85416667 -7.4375 9.0625 C-8.283125 8.381875 -9.12875 7.70125 -10 7 C-7.03 7 -4.06 7 -1 7 C-0.67 4.69 -0.34 2.38 0 0 Z " fill="#E3E7F0" transform="translate(1227,1319)"/>
<path d="M0 0 C0.66 0 1.32 0 2 0 C2.33 2.31 2.66 4.62 3 7 C5.97 7 8.94 7 12 7 C10.71034824 8.37562854 9.37310707 9.70766393 8 11 C7.34 11 6.68 11 6 11 C6.33 13.64 6.66 16.28 7 19 C6.443125 18.649375 5.88625 18.29875 5.3125 17.9375 C2.3876905 16.75176642 0.99249759 17.10225072 -2 18 C-3.98 18.99 -3.98 18.99 -6 20 C-5.34 17.03 -4.68 14.06 -4 11 C-4.804375 10.71125 -5.60875 10.4225 -6.4375 10.125 C-9 9 -9 9 -10 7 C-7.03 7 -4.06 7 -1 7 C-0.67 4.69 -0.34 2.38 0 0 Z " fill="#E7EAF2" transform="translate(1268,1246)"/>
<path d="M0 0 C0.66 0 1.32 0 2 0 C2.33 2.31 2.66 4.62 3 7 C5.97 7 8.94 7 12 7 C8.25 10.875 8.25 10.875 6 12 C6.66 14.64 7.32 17.28 8 20 C7.4225 19.690625 6.845 19.38125 6.25 19.0625 C3.23632787 17.62702436 3.23632787 17.62702436 0 17 C-2.24755753 18.3516367 -2.24755753 18.3516367 -4 20 C-4.66 19.67 -5.32 19.34 -6 19 C-5.34 16.36 -4.68 13.72 -4 11 C-4.804375 10.71125 -5.60875 10.4225 -6.4375 10.125 C-9 9 -9 9 -10 7 C-7.03 7 -4.06 7 -1 7 C-0.67 4.69 -0.34 2.38 0 0 Z " fill="#E6E9F1" transform="translate(1113,1242)"/>
<path d="M0 0 C2 3 2 3 3 6 C5.64 6.33 8.28 6.66 11 7 C10.154375 7.66 9.30875 8.32 8.4375 9 C5.81089794 11.6303496 5.81089794 11.6303496 5.890625 14.11328125 C6.15774969 16.09211284 6.57033783 18.04999475 7 20 C6.278125 19.484375 5.55625 18.96875 4.8125 18.4375 C2.13453277 16.76287516 2.13453277 16.76287516 -0.625 17.1875 C-3.2204806 17.96244996 -3.2204806 17.96244996 -6 20 C-5.731875 18.783125 -5.46375 17.56625 -5.1875 16.3125 C-4.82432666 14.13313307 -4.82432666 14.13313307 -5 12 C-7.27127334 8.97590636 -7.27127334 8.97590636 -10 7 C-7.36 7 -4.72 7 -2 7 C-1.855625 6.030625 -1.71125 5.06125 -1.5625 4.0625 C-1 1 -1 1 0 0 Z " fill="#EAEDF3" transform="translate(1181,1252)"/>
<path d="M0 0 C2.5654594 2.5654594 2.54046087 4.47686668 3 8 C5.64 8 8.28 8 11 8 C9.71034824 9.37562854 8.37310707 10.70766393 7 12 C6.34 12 5.68 12 5 12 C5.66 14.64 6.32 17.28 7 20 C6.401875 19.690625 5.80375 19.38125 5.1875 19.0625 C2.91043228 17.89790296 2.91043228 17.89790296 0 17 C-3.18288354 18.87178116 -3.18288354 18.87178116 -6 21 C-5.34 18.03 -4.68 15.06 -4 12 C-5.32 11.34 -6.64 10.68 -8 10 C-8.66 9.34 -9.32 8.68 -10 8 C-7.36 8 -4.72 8 -2 8 C-1.7834375 6.576875 -1.7834375 6.576875 -1.5625 5.125 C-1 2 -1 2 0 0 Z " fill="#EDF0F5" transform="translate(799,1192)"/>
<path d="M0 0 C1.74627478 2.61941217 2.38722388 4.03824877 3 7 C5.31 7.33 7.62 7.66 10 8 C9.319375 8.474375 8.63875 8.94875 7.9375 9.4375 C5.66211786 12.44687638 5.82395666 13.14283302 6.25 16.75 C6.47906484 18.17020201 6.72251758 19.58845901 7 21 C5.02 19.68 3.04 18.36 1 17 C0.1028125 17.4640625 0.1028125 17.4640625 -0.8125 17.9375 C-3 19 -3 19 -6 20 C-5.9175 18.7625 -5.835 17.525 -5.75 16.25 C-5.7262052 12.89493302 -5.80358323 12.24552096 -8 9.5 C-8.66 9.005 -9.32 8.51 -10 8 C-7.36 8 -4.72 8 -2 8 C-1.855625 6.865625 -1.71125 5.73125 -1.5625 4.5625 C-1 1 -1 1 0 0 Z " fill="#EDF0F5" transform="translate(1135,992)"/>
<path d="M0 0 C0.66 0.33 1.32 0.66 2 1 C2.40729228 3.32156597 2.74438677 5.6568787 3 8 C5.64 8 8.28 8 11 8 C9.71034824 9.37562854 8.37310707 10.70766393 7 12 C6.34 12 5.68 12 5 12 C5.350625 12.763125 5.70125 13.52625 6.0625 14.3125 C7 17 7 17 6 20 C5.443125 19.46375 4.88625 18.9275 4.3125 18.375 C3.549375 17.92125 2.78625 17.4675 2 17 C-0.59047977 17.75285597 -0.59047977 17.75285597 -3 19 C-3.99 19 -4.98 19 -6 19 C-5.7525 17.9275 -5.505 16.855 -5.25 15.75 C-4.57571378 11.97254504 -4.57571378 11.97254504 -6.9375 9.5625 C-7.618125 9.046875 -8.29875 8.53125 -9 8 C-5.535 7.505 -5.535 7.505 -2 7 C-1.34 4.69 -0.68 2.38 0 0 Z " fill="#F0F2F7" transform="translate(1366,1160)"/>
<path d="M0 0 C0.66 0.33 1.32 0.66 2 1 C2.40729228 3.32156597 2.74438677 5.6568787 3 8 C5.64 8 8.28 8 11 8 C9.71034824 9.37562854 8.37310707 10.70766393 7 12 C6.34 12 5.68 12 5 12 C5.350625 12.5775 5.70125 13.155 6.0625 13.75 C7.14917407 16.35801776 6.93065133 17.39417629 6 20 C5.443125 19.46375 4.88625 18.9275 4.3125 18.375 C3.549375 17.92125 2.78625 17.4675 2 17 C-0.59047977 17.75285597 -0.59047977 17.75285597 -3 19 C-3.99 19 -4.98 19 -6 19 C-5.7525 17.9275 -5.505 16.855 -5.25 15.75 C-4.57571378 11.97254504 -4.57571378 11.97254504 -6.9375 9.5625 C-7.618125 9.046875 -8.29875 8.53125 -9 8 C-5.535 7.505 -5.535 7.505 -2 7 C-1.34 4.69 -0.68 2.38 0 0 Z " fill="#F0F2F7" transform="translate(982,1115)"/>
<path d="M0 0 C0.66 0.33 1.32 0.66 2 1 C2.33 1.99 2.66 2.98 3 4 C4.65 4.33 6.3 4.66 8 5 C7.484375 5.37125 6.96875 5.7425 6.4375 6.125 C4.63680017 8.03173152 4.63680017 8.03173152 5.3125 11.1875 C5.6528125 12.5796875 5.6528125 12.5796875 6 14 C5.4225 13.649375 4.845 13.29875 4.25 12.9375 C1.60607414 11.83586422 0.63828852 12.03262754 -2 13 C-2.99 13.495 -2.99 13.495 -4 14 C-3.67 11.69 -3.34 9.38 -3 7 C-3.99 6.67 -4.98 6.34 -6 6 C-6 5.67 -6 5.34 -6 5 C-4.35 5 -2.7 5 -1 5 C-0.67 3.35 -0.34 1.7 0 0 Z " fill="#E8EBF2" transform="translate(766,1090)"/>
<path d="M0 0 C2 2 2 2 2 5 C3.98 5 5.96 5 8 5 C7.505 5.37125 7.01 5.7425 6.5 6.125 C4.40244486 8.74694393 4.78256165 10.73842472 5 14 C4.01 13.34 3.02 12.68 2 12 C-0.28397032 12.34605611 -1.93409037 12.96704519 -4 14 C-3.9071875 12.6078125 -3.9071875 12.6078125 -3.8125 11.1875 C-3.69105736 8.01604897 -3.69105736 8.01604897 -5.5 6.125 C-5.995 5.75375 -6.49 5.3825 -7 5 C-5.02 5 -3.04 5 -1 5 C-0.67 3.35 -0.34 1.7 0 0 Z " fill="#EFF1F6" transform="translate(1003,1147)"/>
<path d="M0 0 C0.66 0 1.32 0 2 0 C2 1.32 2 2.64 2 4 C2.99 4.33 3.98 4.66 5 5 C4.67 6.65 4.34 8.3 4 10 C3.38125 9.814375 2.7625 9.62875 2.125 9.4375 C-0.04160178 8.76313824 -0.04160178 8.76313824 -2 10 C-2.33 8.02 -2.66 6.04 -3 4 C-2.01 4 -1.02 4 0 4 C0 2.68 0 1.36 0 0 Z " fill="#E2E6EF" transform="translate(1023,1338)"/>
</svg>
